HIERARCHY
ROOT Hips
{
	OFFSET 0.000000 83.214638 0.000000
	CHANNELS 6 Xposition Yposition Zposition Xrotation Yrotation Zrotation
	JOINT Pelvis
	{
		OFFSET 0.000000 0.000000 0.000000
		CHANNELS 3 Xrotation Yrotation Zrotation
		JOINT LeftUpLeg
		{
			OFFSET 8.479700 -4.795502 -0.379100
			CHANNELS 3 Xrotation Yrotation Zrotation
			JOINT LeftLeg
			{
				OFFSET 0.024144 -32.555107 0.112900
				CHANNELS 3 Xrotation Yrotation Zrotation
				JOINT LeftFoot
				{
					OFFSET -0.024144 -32.638630 -3.012600
					CHANNELS 3 Xrotation Yrotation Zrotation
					JOINT LeftToeBase
					{
						OFFSET 0.970200 -13.225400 11.864200
						CHANNELS 3 Xrotation Yrotation Zrotation
						End Site
						{
							OFFSET 0.000000 12.319262 0.000000
						}
					}
					JOINT LFootTongue
					{
						OFFSET 1.142400 -1.059800 6.665200
						CHANNELS 3 Xrotation Yrotation Zrotation
						End Site
						{
							OFFSET 0.000000 12.319262 0.000000
						}
					}
				}
				JOINT LeftPantLeg
				{
					OFFSET 0.918482 -16.533964 -2.284700
					CHANNELS 3 Xrotation Yrotation Zrotation
					End Site
					{
						OFFSET 0.350399 24.744368 0.000000
					}
				}
			}
		}
		JOINT RightUpLeg
		{
			OFFSET -8.479700 -4.795502 -0.379100
			CHANNELS 3 Xrotation Yrotation Zrotation
			JOINT RightLeg
			{
				OFFSET -0.023144 -32.555092 0.112900
				CHANNELS 3 Xrotation Yrotation Zrotation
				JOINT RightFoot
				{
					OFFSET 0.023144 -32.638641 -3.012700
					CHANNELS 3 Xrotation Yrotation Zrotation
					JOINT RightToeBase
					{
						OFFSET -0.970200 -13.225400 11.864200
						CHANNELS 3 Xrotation Yrotation Zrotation
						End Site
						{
							OFFSET 0.000000 12.319244 0.000000
						}
					}
					JOINT RFootTongue
					{
						OFFSET -1.142200 -1.059800 6.665200
						CHANNELS 3 Xrotation Yrotation Zrotation
						End Site
						{
							OFFSET 0.000000 12.319243 0.000000
						}
					}
				}
				JOINT RightPantLeg
				{
					OFFSET -0.919482 -16.533978 -2.284800
					CHANNELS 3 Xrotation Yrotation Zrotation
					End Site
					{
						OFFSET -0.350400 24.744419 0.000000
					}
				}
			}
		}
	}
	JOINT Spine
	{
		OFFSET 0.000000 7.722000 1.166200
		CHANNELS 3 Xrotation Yrotation Zrotation
		JOINT Spine1
		{
			OFFSET 0.000000 12.024101 0.248800
			CHANNELS 3 Xrotation Yrotation Zrotation
			JOINT Spine2
			{
				OFFSET 0.000000 11.502998 -0.491200
				CHANNELS 3 Xrotation Yrotation Zrotation
				JOINT Neck
				{
					OFFSET 0.000000 18.430702 -3.123100
					CHANNELS 3 Xrotation Yrotation Zrotation
					JOINT Head
					{
						OFFSET 0.000000 9.051102 1.034000
						CHANNELS 3 Xrotation Yrotation Zrotation
						JOINT HairB
						{
							OFFSET 0.208400 24.786102 24.822300
							CHANNELS 3 Xrotation Yrotation Zrotation
							End Site
							{
								OFFSET 0.000000 32.263779 0.000000
							}
						}
						JOINT HairA
						{
							OFFSET -7.081100 24.428299 23.196600
							CHANNELS 3 Xrotation Yrotation Zrotation
							End Site
							{
								OFFSET 0.000000 32.263779 0.000000
							}
						}
						JOINT Hat
						{
							OFFSET 16.728800 15.048294 -15.439601
							CHANNELS 3 Xrotation Yrotation Zrotation
							End Site
							{
								OFFSET 0.000000 32.263779 0.000000
							}
						}
					}
				}
				JOINT LeftShoulder
				{
					OFFSET 6.197800 13.665199 -4.064700
					CHANNELS 3 Xrotation Yrotation Zrotation
					JOINT LeftArm
					{
						OFFSET 7.778100 -0.187103 -1.709300
						CHANNELS 3 Xrotation Yrotation Zrotation
						JOINT LeftForeArm
						{
							OFFSET 22.049376 0.000000 0.000000
							CHANNELS 3 Xrotation Yrotation Zrotation
							JOINT LeftHand
							{
								OFFSET 23.009392 0.000000 0.000000
								CHANNELS 3 Xrotation Yrotation Zrotation
								JOINT LeftHandThumb1
								{
									OFFSET 3.507191 -2.063065 3.133727
									CHANNELS 3 Xrotation Yrotation Zrotation
									JOINT LeftHandThumb2
									{
										OFFSET 3.101337 -1.790558 1.790558
										CHANNELS 3 Xrotation Yrotation Zrotation
										JOINT LeftHandThumb3
										{
											OFFSET 3.058640 -1.765907 1.765906
											CHANNELS 3 Xrotation Yrotation Zrotation
											End Site
											{
												OFFSET -0.415260 3.926476 -0.049563
											}
										}
									}
								}
								JOINT LeftHandIndex1
								{
									OFFSET 11.334419 -0.901459 3.706815
									CHANNELS 3 Xrotation Yrotation Zrotation
									JOINT LeftHandIndex2
									{
										OFFSET 3.283112 0.000000 0.000000
										CHANNELS 3 Xrotation Yrotation Zrotation
										JOINT LeftHandIndex3
										{
											OFFSET 3.323853 0.000000 0.000000
											CHANNELS 3 Xrotation Yrotation Zrotation
											End Site
											{
												OFFSET -1.135597 3.097809 0.402452
											}
										}
									}
								}
								JOINT LeftHandMiddle1
								{
									OFFSET 11.335861 0.000000 0.000000
									CHANNELS 3 Xrotation Yrotation Zrotation
									JOINT LeftHandMiddle2
									{
										OFFSET 3.410492 0.000000 0.000000
										CHANNELS 3 Xrotation Yrotation Zrotation
										JOINT LeftHandMiddle3
										{
											OFFSET 3.312172 0.000000 0.000000
											CHANNELS 3 Xrotation Yrotation Zrotation
											End Site
											{
												OFFSET -1.150200 3.080154 0.400270
											}
										}
									}
								}
								JOINT LeftHandRing1
								{
									OFFSET 11.514786 -0.013176 -3.003090
									CHANNELS 3 Xrotation Yrotation Zrotation
									JOINT LeftHandRing2
									{
										OFFSET 3.053307 0.000000 0.000000
										CHANNELS 3 Xrotation Yrotation Zrotation
										JOINT LeftHandRing3
										{
											OFFSET 3.295807 0.000000 0.000000
											CHANNELS 3 Xrotation Yrotation Zrotation
											End Site
											{
												OFFSET -1.281006 3.013344 0.375733
											}
										}
									}
								}
								JOINT LeftHandPinky1
								{
									OFFSET 10.518692 -0.960396 -5.730441
									CHANNELS 3 Xrotation Yrotation Zrotation
									JOINT LeftHandPinky2
									{
										OFFSET 2.861649 0.000000 0.000000
										CHANNELS 3 Xrotation Yrotation Zrotation
										JOINT LeftHandPinky3
										{
											OFFSET 2.863380 0.000000 0.000000
											CHANNELS 3 Xrotation Yrotation Zrotation
											End Site
											{
												OFFSET -0.843597 2.711159 0.369971
											}
										}
									}
								}
							}
							JOINT LSleeve
							{
								OFFSET 6.676277 -0.344902 -1.011730
								CHANNELS 3 Xrotation Yrotation Zrotation
								End Site
								{
									OFFSET 0.000000 14.885353 0.000000
								}
							}
						}
					}
				}
				JOINT RightShoulder
				{
					OFFSET -6.197800 13.665199 -4.064700
					CHANNELS 3 Xrotation Yrotation Zrotation
					JOINT RightArm
					{
						OFFSET -7.778100 -0.187103 -1.709300
						CHANNELS 3 Xrotation Yrotation Zrotation
						JOINT RightForeArm
						{
							OFFSET -22.049376 0.000000 0.000000
							CHANNELS 3 Xrotation Yrotation Zrotation
							JOINT RightHand
							{
								OFFSET -23.009392 0.000000 0.000000
								CHANNELS 3 Xrotation Yrotation Zrotation
								JOINT RightHandThumb1
								{
									OFFSET -3.507191 -2.063065 3.133727
									CHANNELS 3 Xrotation Yrotation Zrotation
									JOINT RightHandThumb2
									{
										OFFSET -3.101337 -1.790558 1.790558
										CHANNELS 3 Xrotation Yrotation Zrotation
										JOINT RightHandThumb3
										{
											OFFSET -3.058640 -1.765907 1.765906
											CHANNELS 3 Xrotation Yrotation Zrotation
											End Site
											{
												OFFSET 0.415260 3.926476 -0.049563
											}
										}
									}
								}
								JOINT RightHandIndex1
								{
									OFFSET -11.334419 -0.901459 3.706815
									CHANNELS 3 Xrotation Yrotation Zrotation
									JOINT RightHandIndex2
									{
										OFFSET -3.283112 0.000000 0.000000
										CHANNELS 3 Xrotation Yrotation Zrotation
										JOINT RightHandIndex3
										{
											OFFSET -3.323853 0.000000 0.000000
											CHANNELS 3 Xrotation Yrotation Zrotation
											End Site
											{
												OFFSET 1.135597 3.097809 0.402452
											}
										}
									}
								}
								JOINT RightHandMiddle1
								{
									OFFSET -11.335861 0.000000 0.000000
									CHANNELS 3 Xrotation Yrotation Zrotation
									JOINT RightHandMiddle2
									{
										OFFSET -3.410492 0.000000 0.000000
										CHANNELS 3 Xrotation Yrotation Zrotation
										JOINT RightHandMiddle3
										{
											OFFSET -3.312172 0.000000 0.000000
											CHANNELS 3 Xrotation Yrotation Zrotation
											End Site
											{
												OFFSET 1.150200 3.080154 0.400270
											}
										}
									}
								}
								JOINT RightHandRing1
								{
									OFFSET -11.514786 -0.013176 -3.003090
									CHANNELS 3 Xrotation Yrotation Zrotation
									JOINT RightHandRing2
									{
										OFFSET -3.053307 0.000000 0.000000
										CHANNELS 3 Xrotation Yrotation Zrotation
										JOINT RightHandRing3
										{
											OFFSET -3.295807 0.000000 0.000000
											CHANNELS 3 Xrotation Yrotation Zrotation
											End Site
											{
												OFFSET 1.281006 3.013344 0.375733
											}
										}
									}
								}
								JOINT RightHandPinky1
								{
									OFFSET -10.518692 -0.960396 -5.730441
									CHANNELS 3 Xrotation Yrotation Zrotation
									JOINT RightHandPinky2
									{
										OFFSET -2.861649 0.000000 0.000000
										CHANNELS 3 Xrotation Yrotation Zrotation
										JOINT RightHandPinky3
										{
											OFFSET -2.863380 0.000000 0.000000
											CHANNELS 3 Xrotation Yrotation Zrotation
											End Site
											{
												OFFSET 0.843597 2.711159 0.369971
											}
										}
									}
								}
							}
							JOINT RSleeve
							{
								OFFSET -6.676277 -0.344902 -1.011730
								CHANNELS 3 Xrotation Yrotation Zrotation
								End Site
								{
									OFFSET 0.000000 14.885353 0.000000
								}
							}
						}
					}
				}
				JOINT Backpack
				{
					OFFSET 0.000000 -2.471497 36.677502
					CHANNELS 3 Xrotation Yrotation Zrotation
					End Site
					{
						OFFSET 0.000000 20.427315 0.000000
					}
				}
				JOINT Hood
				{
					OFFSET 0.000000 18.754097 -10.431000
					CHANNELS 3 Xrotation Yrotation Zrotation
					JOINT Hood1
					{
						OFFSET 0.000000 -5.011002 -7.685901
						CHANNELS 3 Xrotation Yrotation Zrotation
						End Site
						{
							OFFSET 0.000000 9.175140 0.000000
						}
					}
				}
				JOINT LHoodieString
				{
					OFFSET 5.250500 16.397697 3.089900
					CHANNELS 3 Xrotation Yrotation Zrotation
					JOINT LHoodieString1
					{
						OFFSET 0.257700 -6.364304 3.694600
						CHANNELS 3 Xrotation Yrotation Zrotation
						JOINT LHoodieString2
						{
							OFFSET 0.000000 -9.643799 2.679100
							CHANNELS 3 Xrotation Yrotation Zrotation
							End Site
							{
								OFFSET 0.000000 10.009018 0.000000
							}
						}
					}
				}
				JOINT RHoodieString
				{
					OFFSET -5.250500 16.397697 3.089900
					CHANNELS 3 Xrotation Yrotation Zrotation
					JOINT RHoodieString1
					{
						OFFSET -0.257700 -6.364304 3.694600
						CHANNELS 3 Xrotation Yrotation Zrotation
						JOINT RHoodieString2
						{
							OFFSET 0.000000 -9.643799 2.679100
							CHANNELS 3 Xrotation Yrotation Zrotation
							End Site
							{
								OFFSET 0.000000 10.009018 0.000000
							}
						}
					}
				}
			}
			JOINT LBackpack_Strap
			{
				OFFSET 15.223200 -7.719803 -6.610900
				CHANNELS 3 Xrotation Yrotation Zrotation
				End Site
				{
					OFFSET 0.000000 16.040596 0.000000
				}
			}
			JOINT RBackpack_Strap
			{
				OFFSET -15.223000 -7.719803 -6.610900
				CHANNELS 3 Xrotation Yrotation Zrotation
				End Site
				{
					OFFSET 0.000000 16.040596 0.000000
				}
			}
		}
	}
	JOINT BoyFacialAnim_Joint
	{
		OFFSET 1.000000 -82.208099 -1.550900
		CHANNELS 3 Xrotation Yrotation Zrotation
		End Site
		{
			OFFSET 0.000000 30.012791 0.000000
		}
	}
}
MOTION
Frames: 4
Frame Time: 0.033333
0.859157 75.668236 -6.533326 -11.173547 -47.810344 -12.791820 0.000000 0.000002 0.000000 -33.445131 11.695929 28.501990 32.574449 9.556513 3.089762 8.482454 -0.124512 -14.245783 -0.000000 0.000000 -0.000000 -0.000000 0.000000 -0.000000 -0.000001 -0.000001 0.000000 -6.670668 -13.524225 -8.058470 46.274508 -10.249393 4.482505 -26.093479 -12.589575 5.410995 0.000000 -0.000000 -0.000000 0.000000 -0.000000 -0.000000 -0.000001 -0.000000 -0.000000 18.409547 -2.052844 3.383733 9.542927 -1.134306 1.012825 9.537901 -1.157089 1.033231 -2.164078 5.353677 2.955201 -2.151793 38.697407 -8.631842 0.000000 -0.000000 -0.000000 0.000000 -0.000000 -0.000000 0.000000 -0.000000 -0.000000 0.047724 -6.147947 2.341800 -32.154973 -2.442568 -70.143700 0.004654 -91.124832 0.004664 -13.434364 -18.290080 -28.241514 -11.544062 3.937112 -11.247906 10.677894 35.781011 4.151844 0.000000 -0.000000 0.000001 7.366575 8.232950 -88.737995 5.978084 5.849701 -91.246027 -0.000003 0.000001 -0.000005 7.445906 8.184752 -90.584899 6.150170 5.843424 -92.935365 -0.000001 -0.000001 -0.000000 3.533015 8.513964 -96.589393 5.676597 5.848468 -88.288419 -0.000001 -0.000001 -0.000001 -0.142124 9.233551 -98.927832 4.244324 5.626890 -74.034934 -0.000001 0.000001 0.000003 0.000001 0.000001 -0.000001 0.917738 9.399537 -0.054113 -6.175402 1.279099 62.663174 0.000297 101.854745 -0.000298 0.344675 25.762299 0.073497 -18.904833 9.482132 11.161056 26.876724 -51.424559 5.323515 -0.000002 0.000003 0.000002 7.780445 -6.832754 91.963286 5.720688 -4.534406 103.214568 0.000000 0.000000 0.000002 6.867648 -6.610327 100.643097 5.355076 -4.604690 98.627781 0.000003 0.000002 -0.000002 3.537828 -7.432094 105.534810 5.201248 -4.625349 96.716230 0.000001 -0.000001 0.000004 2.504873 -7.840979 107.360902 5.159243 -4.630111 96.195435 0.000001 0.000000 0.000002 -0.000000 0.000001 -0.000002 -0.000001 0.000001 -0.000001 -0.000001 0.000001 -0.000001 -0.000001 0.000001 -0.000001 -0.000001 0.000001 -0.000001 -0.000001 0.000001 -0.000001 -0.000001 0.000003 -0.000002 -0.000001 0.000001 -0.000001 -0.000001 0.000001 -0.000001 -0.000001 0.000003 -0.000002 -0.000000 0.000002 -0.000000 -0.000000 0.000002 -0.000000 0.000000 0.000002 0.000000 
0.828472 75.651726 -6.527324 -11.148020 -47.814463 -12.761762 0.000000 0.000000 -0.000000 -33.503038 11.699125 28.531888 32.666360 9.581876 3.076097 8.437710 -0.148651 -14.217705 -0.000000 0.000001 0.000000 -0.000000 0.000001 -0.000000 -0.000000 0.000001 -0.000000 -6.716664 -13.473013 -8.038635 46.370127 -10.250085 4.454350 -26.102854 -12.667001 5.449962 0.000000 0.000000 0.000000 0.000000 0.000000 0.000000 0.000000 -0.000000 0.000002 18.372399 -2.066711 3.387337 9.523958 -1.141556 1.017825 9.518850 -1.164393 1.038254 -2.185788 5.349008 2.968420 -2.173529 38.689234 -8.621277 0.000001 0.000000 -0.000000 0.000001 0.000000 -0.000000 0.000001 0.000000 -0.000000 0.041954 -6.110681 2.347435 -32.200913 -2.436554 -70.158665 -0.006078 -91.125768 -0.006160 -13.419120 -18.285267 -28.181477 -11.668260 3.916157 -11.269997 10.678564 35.774950 4.148662 0.000000 0.000001 -0.000001 7.372495 8.232623 -88.755255 5.983648 5.849587 -91.300751 -0.000000 0.000000 -0.000000 7.450600 8.184496 -90.593095 6.154364 5.843221 -92.976640 0.000004 -0.000001 0.000000 3.523332 8.514282 -96.574264 5.677240 5.848477 -88.294784 -0.000000 -0.000000 -0.000000 -0.156617 9.239911 -98.960145 4.244918 5.627048 -74.041272 -0.000000 0.000001 -0.000000 0.000001 0.000000 0.000002 0.912227 9.364014 -0.070499 -6.115134 1.489827 62.624666 0.000375 101.757060 -0.000389 0.380505 25.803309 0.016805 -18.909293 9.525576 11.207151 26.873080 -51.418733 5.320652 -0.000003 0.000003 0.000003 7.790464 -6.831232 91.986604 5.721201 -4.534248 103.221043 -0.000002 0.000000 0.000000 6.869024 -6.610712 100.615305 5.356229 -4.604523 98.642425 0.000003 -0.000000 -0.000000 3.527660 -7.433402 105.501629 5.204985 -4.624908 96.762955 -0.000001 -0.000001 0.000004 2.496528 -7.844356 107.372397 5.159282 -4.630101 96.195899 -0.000003 0.000000 -0.000001 -0.000001 0.000001 0.000001 -0.000000 0.000000 -0.000001 -0.000000 0.000000 -0.000001 -0.000000 0.000000 -0.000001 -0.000000 0.000000 -0.000001 -0.000000 0.000000 0.000000 0.000001 0.000000 0.000000 -0.000000 0.000000 -0.000001 -0.000000 0.000000 0.000000 0.000001 0.000000 0.000000 0.000002 -0.000002 0.000001 0.000002 -0.000002 0.000001 0.000000 0.000000 -0.000000 
0.786136 75.614929 -6.548724 -11.159831 -47.837870 -12.731748 -0.000001 -0.000001 -0.000000 -33.561620 11.720670 28.587192 32.788658 9.614074 3.043639 8.381276 -0.180812 -14.198389 -0.000000 0.000000 0.000000 -0.000000 0.000000 -0.000000 -0.000000 0.000001 0.000000 -6.820052 -13.507973 -8.113620 46.596394 -10.253284 4.466037 -26.195317 -12.563340 5.443875 -0.000000 0.000000 0.000000 -0.000000 0.000000 0.000000 -0.000000 -0.000000 -0.000000 18.325923 -2.111730 3.389347 9.501044 -1.164544 1.024062 9.495903 -1.187199 1.044631 -2.142635 5.347686 2.969972 -2.158891 38.705688 -8.653121 -0.000001 -0.000000 0.000001 -0.000001 -0.000000 0.000001 -0.000001 -0.000000 0.000001 0.068384 -6.235294 2.304470 -32.275960 -2.213767 -70.062817 0.008794 -91.239402 0.008802 -13.501875 -18.219618 -28.193161 -11.814865 3.954749 -11.244626 10.677898 35.780264 4.151567 0.000001 -0.000001 0.000000 7.376737 8.233918 -88.711194 6.002479 5.849089 -91.485412 0.000001 -0.000003 -0.000001 7.458800 8.184417 -90.593676 6.151916 5.843339 -92.952482 0.000002 -0.000001 0.000000 3.504588 8.515567 -96.557879 5.675532 5.848449 -88.278030 -0.000000 -0.000001 -0.000001 -0.192643 9.248524 -98.982077 4.233836 5.623888 -73.928062 0.000000 0.000000 -0.000000 0.000002 0.000000 -0.000000 0.908451 9.383141 -0.116562 -6.125110 1.697857 62.533257 0.000150 101.730135 -0.000134 0.333964 25.839955 0.130787 -18.910682 9.659785 11.351086 26.860359 -51.398642 5.310338 -0.000000 0.000004 0.000000 7.814425 -6.826252 92.068969 5.723442 -4.533741 103.249374 -0.000000 -0.000000 0.000004 6.872649 -6.611128 100.567678 5.360110 -4.603951 98.690715 0.000002 -0.000000 -0.000002 3.504657 -7.435777 105.414257 5.215792 -4.623612 96.896759 0.000000 -0.000000 0.000004 2.480175 -7.852041 107.409233 5.159518 -4.630076 96.198748 0.000003 -0.000000 0.000000 -0.000000 -0.000002 0.000002 -0.000002 -0.000000 -0.000001 -0.000002 -0.000000 -0.000001 -0.000002 -0.000000 -0.000001 -0.000002 -0.000000 -0.000001 -0.000002 -0.000000 -0.000000 -0.000001 0.000001 -0.000001 -0.000002 -0.000000 -0.000001 -0.000002 -0.000000 -0.000000 -0.000001 0.000001 -0.000001 0.000002 -0.000001 0.000000 0.000002 -0.000001 0.000000 -0.000001 -0.000001 -0.000000 
0.736849 75.578156 -6.592089 -11.154902 -47.889858 -12.720450 -0.000000 0.000001 0.000001 -33.654917 11.753376 28.714180 32.888536 9.651091 2.994825 8.361094 -0.233153 -14.164070 -0.000000 -0.000000 0.000000 -0.000000 -0.000000 0.000000 0.000000 -0.000001 0.000001 -6.924127 -13.460453 -8.048231 46.795183 -10.259405 4.411901 -26.318575 -12.544352 5.380605 -0.000000 -0.000000 0.000000 -0.000000 -0.000000 0.000000 -0.000000 0.000001 -0.000001 18.263467 -2.143394 3.423947 9.471478 -1.182399 1.031619 9.466200 -1.205352 1.052389 -2.134655 5.344213 2.974620 -2.094326 38.691358 -8.692960 -0.000000 0.000000 0.000000 -0.000000 0.000000 0.000000 -0.000000 0.000000 0.000000 0.093513 -6.393176 2.273765 -32.376907 -1.891592 -69.998572 -0.000378 -91.416338 -0.000268 -13.580797 -18.186975 -28.261212 -11.911303 3.943130 -11.267696 10.677583 35.783873 4.153369 -0.000002 0.000001 0.000000 7.382392 8.234879 -88.681728 6.003876 5.849090 -91.499051 0.000001 0.000001 -0.000003 7.468794 8.183843 -90.612302 6.147517 5.843553 -92.909124 0.000001 -0.000000 -0.000003 3.489866 8.518354 -96.577509 5.674513 5.848407 -88.268003 -0.000001 -0.000001 -0.000000 -0.228231 9.257310 -99.005511 4.220081 5.619913 -73.787579 0.000002 -0.000001 0.000003 -0.000002 -0.000001 -0.000001 0.899236 9.372450 -0.184590 -6.140031 2.033556 62.392624 0.000446 101.721427 -0.000440 0.222380 25.919485 0.438290 -18.818624 9.817167 11.515650 26.837263 -51.362111 5.291548 -0.000001 0.000003 0.000000 7.842792 -6.818221 92.206399 5.725088 -4.533352 103.269899 -0.000001 0.000001 0.000002 6.876117 -6.611688 100.518303 5.366402 -4.602967 98.769002 0.000002 0.000001 -0.000002 3.478739 -7.437373 105.293465 5.228389 -4.622074 97.053341 -0.000001 0.000000 0.000000 2.465924 -7.860499 107.466313 5.160460 -4.629990 96.210420 0.000001 0.000000 -0.000003 -0.000001 0.000000 0.000003 0.000001 0.000000 0.000000 0.000001 0.000000 0.000000 0.000001 0.000000 0.000000 0.000001 0.000000 0.000000 0.000001 0.000000 0.000000 0.000001 0.000000 -0.000001 0.000001 0.000000 0.000000 0.000001 0.000000 0.000000 0.000001 0.000000 -0.000001 0.000000 -0.000001 -0.000000 0.000000 -0.000001 -0.000000 -0.000000 0.000001 0.000001 
